<?xml version="1.0" encoding="UTF-8"?>
<svg id="_图层_2" data-name="图层 2" xmlns="http://www.w3.org/2000/svg" viewBox="0 0 45.63 8">
  <defs>
    <style>
      .cls-1 {
        fill: #fff;
      }

      .cls-1, .cls-2 {
        stroke: #231815;
        stroke-miterlimit: 10;
        stroke-width: .25px;
      }

      .cls-2, .cls-3 {
        fill: #231815;
      }

      .cls-3 {
        stroke-width: 0px;
      }
    </style>
  </defs>
  <g id="_图层_1-2" data-name="图层 1">
    <g>
      <polygon class="cls-1" points="30.05 7.8 27.89 7.8 25.02 3.79 25.02 7.34 23.16 7.35 22.87 .62 25.02 .62 27.89 4.69 27.89 .62 30.05 .62 30.05 7.8"/>
      <path class="cls-1" d="M31.4,7.51c-.49-.24-.87-.58-1.15-1.02-.28-.44-.42-.96-.42-1.56s.14-1.11.42-1.55.67-.78,1.15-1.02c.49-.24,1.04-.36,1.66-.36s1.17.12,1.66.36c.49.24.87.58,1.16,1.02.28.44.42.96.42,1.55s-.14,1.11-.42,1.55c-.28.44-.67.79-1.16,1.02-.49.24-1.04.36-1.66.36s-1.17-.12-1.66-.36Z"/>
      <path class="cls-1" d="M39.72,6.1v1.7h-.94c-1.58,0-2.36-.72-2.36-2.17v-1.88h-.36l-.19-.35-.21-.4v-.91h.76V.71h2.17v1.38h1.12v1.66h-1.12v1.91c0,.16.04.27.12.34.08.07.21.1.39.1h.63Z"/>
      <path class="cls-1" d="M45.47,5.35h-4.08c.02.31.12.54.28.7.16.15.38.23.63.23.36,0,.62-.15.77-.45h2.3c-.1.39-.28.74-.56,1.05-.28.31-.62.55-1.04.73s-.88.26-1.39.26c-.61,0-1.15-.12-1.62-.36-.47-.24-.84-.58-1.11-1.02-.27-.44-.4-.96-.4-1.56s.13-1.11.4-1.55c.26-.44.63-.77,1.11-1.01.47-.24,1.02-.36,1.63-.36s1.15.12,1.62.35c.47.23.84.56,1.1.99.26.43.4.94.4,1.52,0,.16-.01.31-.03.47ZM43.3,4.38c0-.24-.09-.44-.26-.57-.18-.14-.4-.21-.66-.21s-.48.07-.65.2c-.17.13-.28.33-.33.58h1.9Z"/>
      <g>
        <path class="cls-3" d="M.94,7.31c-.58-.43-.89-1.04-.94-1.84h2.3c.02.27.1.47.24.59.14.12.32.19.54.19.2,0,.36-.05.49-.15.13-.1.19-.24.19-.41,0-.23-.11-.4-.32-.53-.21-.12-.56-.26-1.03-.42-.51-.17-.92-.33-1.23-.49s-.58-.39-.81-.69S.02,2.86.02,2.36s.12-.93.37-1.28c.25-.36.59-.62,1.03-.81.44-.18.94-.27,1.5-.27.9,0,1.62.21,2.16.63.54.42.83,1.01.86,1.78h-2.34c0-.23-.08-.41-.21-.53-.14-.12-.31-.18-.52-.18-.16,0-.29.05-.4.14s-.15.23-.15.41c0,.15.06.27.17.38.11.11.25.2.42.28.17.08.42.17.75.29.49.17.9.34,1.22.5.32.17.59.4.82.69s.35.67.35,1.13-.12.88-.35,1.24-.56.66-1,.87c-.44.21-.95.32-1.55.32-.9,0-1.64-.21-2.22-.64Z"/>
        <path class="cls-3" d="M5.45,3.11c.26-.48.63-.84,1.11-1.1.47-.26,1.01-.39,1.62-.39.78,0,1.44.21,1.98.64.54.43.88,1.03,1.03,1.8h-2.29c-.13-.4-.39-.6-.77-.6-.27,0-.49.11-.64.34-.16.22-.24.55-.24.98s.08.76.24.99c.16.23.37.34.64.34.39,0,.65-.2.77-.61h2.29c-.15.76-.5,1.36-1.03,1.79-.54.43-1.2.65-1.98.65-.61,0-1.15-.13-1.62-.39-.47-.26-.84-.62-1.11-1.1-.26-.48-.4-1.04-.4-1.68s.13-1.2.4-1.67Z"/>
        <path class="cls-3" d="M16.29,5.23h-4.08c.02.34.12.59.28.75.16.17.38.25.63.25.36,0,.62-.16.77-.48h2.3c-.1.43-.28.8-.56,1.14-.28.33-.62.6-1.04.79-.42.19-.88.29-1.39.29-.61,0-1.15-.13-1.62-.39-.47-.26-.84-.62-1.11-1.1-.27-.48-.4-1.04-.4-1.68s.13-1.2.4-1.68c.26-.47.63-.84,1.11-1.09.47-.26,1.02-.39,1.63-.39s1.15.12,1.62.37c.47.25.84.61,1.1,1.07.26.47.4,1.01.4,1.64,0,.17-.01.34-.03.51ZM14.12,4.18c0-.26-.09-.47-.26-.62-.18-.15-.4-.23-.66-.23s-.48.07-.65.21c-.17.14-.28.35-.33.63h1.9Z"/>
        <path class="cls-3" d="M21.29,2.36c.42.47.63,1.11.63,1.92v3.6h-2.16v-3.31c0-.35-.09-.63-.27-.83-.18-.2-.43-.3-.74-.3-.32,0-.58.1-.76.3s-.27.48-.27.83v3.31h-2.16V1.71h2.16v.88c.19-.28.45-.5.77-.68s.69-.26,1.11-.26c.71,0,1.28.24,1.69.71Z"/>
        <path class="cls-3" d="M27.31,5.23h-4.08c.02.34.12.59.28.75.16.17.38.25.63.25.36,0,.62-.16.77-.48h2.3c-.1.43-.28.8-.56,1.14-.28.33-.62.6-1.04.79-.42.19-.88.29-1.39.29-.61,0-1.15-.13-1.62-.39-.47-.26-.84-.62-1.11-1.1-.27-.48-.4-1.04-.4-1.68s.13-1.2.4-1.68c.26-.47.63-.84,1.11-1.09.47-.26,1.02-.39,1.63-.39s1.15.12,1.62.37c.47.25.84.61,1.1,1.07.26.47.4,1.01.4,1.64,0,.17-.01.34-.03.51ZM25.15,4.18c0-.26-.09-.47-.26-.62-.18-.15-.4-.23-.66-.23s-.48.07-.65.21c-.17.14-.28.35-.33.63h1.9Z"/>
      </g>
      <path class="cls-2" d="M34.2,5.23l-1.27.85c-.27.18-.63-.01-.63-.33v-1.71c0-.32.36-.51.63-.33l1.27.85c.24.16.24.51,0,.67Z"/>
    </g>
  </g>
</svg>